<svg viewBox="0 0 2321.43 843.55" xmlns="http://www.w3.org/2000/svg"><g fill="#393c41"><path d="m2115.32 831.88c-.08 1.04.72 1.9 1.77 1.9h21.28c1.04 0 1.97-.85 2.05-1.9l3.66-48.75c.08-1.04-.72-1.9-1.77-1.9h-21.28c-1.06 0-1.96.85-2.05 1.9z"/><path d="m2238.53 781.24c-1.04 0-1.83.85-1.76 1.9l3.7 48.75c.08 1.04.99 1.9 2.04 1.9h21.3c1.04 0 3.04-.85 2.95-1.9l-4.9-48.75c-.06-1.04-.99-1.9-2.05-1.9z"/><path d="m2261.16 757.09c1.04 0 1.9-.85 1.9-1.9v-20.5c0-1.04-.85-1.9-1.9-1.9h-56.92c-1.06 0-1.91-.85-1.91-1.9v-14.45c0-1.04-.85-1.9-1.9-1.9h-20.5c-1.04 0-1.9.85-1.9 1.9v14.45c0 1.04-.87 1.9-1.91 1.9h-56.52c-1.04 0-1.9.85-1.9 1.9v20.5c0 1.04.85 1.9 1.9 1.9h56.52c1.04 0 1.91.85 1.91 1.9v72.9c0 1.04.85 1.91 1.9 1.91h20.5c1.04 0 1.9-.87 1.9-1.91v-72.9c0-1.04.85-1.9 1.91-1.9z"/><path d="m1717.1 797.88c-.5.5-.5 1.31 0 1.81l15.37 15.37c.5.49 1.31.49 1.81 0l55.7-55.7c.5-.5 1.31-.5 1.81 0l72.73 72.87c.52.5 1.32.5 1.82 0l15.37-15.36c.5-.5.5-1.32 0-1.81l-89.91-90.08c-.5-.5-1.31-.5-1.81 0l-72.9 72.9z"/><path d="m1922.33 832.51c-.09.7.41 1.28 1.13 1.28h23.6c.69 0 1.34-.58 1.43-1.28l12.77-106.13c.08-.7-.44-1.27-1.14-1.27h-23.6c-.7 0-1.34.57-1.42 1.27z"/><path d="m2017.94 725.12c-.72 0-1.22.57-1.13 1.27l12.88 106.13c.08.7.73 1.27 1.43 1.27h23.6c.7 0 1.21-.57 1.13-1.27l-12.88-106.13c-.09-.7-.73-1.27-1.43-1.27z"/></g><path d="m2274.95 742.89c0 1.04.85 1.91 1.9 1.91h14.44c1.06 0 1.9-.87 1.9-1.91v-28.04c0-1.04-.84-1.9-1.9-1.9h-14.44c-1.04 0-1.9.85-1.9 1.9z" fill="#1f7acc"/><path d="m2302.98 742.89c0 1.04.84 1.91 1.9 1.91h14.44c1.04 0 1.9-.87 1.9-1.91v-28.04c0-1.04-.85-1.9-1.9-1.9h-14.44c-1.06 0-1.9.85-1.9 1.9z" fill="#1f7acc"/><circle cx="1866.27" cy="730.9" fill="#1f7acc" r="17.95"/><path d="m2077.6 712.95c-9.9 0-17.95 8.03-17.95 17.95s8.04 17.95 17.95 17.95 17.95-8.04 17.95-17.95-8.03-17.95-17.95-17.95z" fill="#1f7acc"/><path d="m986.46 795.35c-.23 7.48-3.51 17.55-13.46 17.55-1.13 0-10.29 0-13.01-10.76-.45-1.34-.9-3.73-.9-7.24 0-12.1 7.24-16.75 13.35-16.75 7.35 0 14.37 6.01 14.03 17.21zm-40.6-51.12v79.86h13.46v-5.88c2.94 3.39 8.03 7.58 15.5 7.58 13.46 0 25.69-11.76 25.69-30.2s-12-29.75-24.78-29.75c-6.22 0-11.88 2.25-16.4 6.45v-28.05h-13.46zm95.02 23.3-10.75 42.19-12.56-42.19h-14.59l20.47 57.69c0 1.13-1.58 3.62-3.17 4.64-2.15 1.47-5.09 1.47-6.11 1.47-1.36 0-2.38-.11-3.62-.33v11.86c1.58.24 3.73.69 8.14.69 10.52 0 14.7-4.2 18.55-16.06l3.17-10.63 14.37-49.33h-13.91z" fill="#005bac"/><path d="m1377.87 825.79c-.41 0-.93-.29-1.14-.64l-33.62-55.04-18.29 62.98c-.11.39-.54.72-.96.72h-35.29c-.4 0-.64-.31-.52-.72l37.21-117.83c.13-.39.57-.73.97-.73h13.26c.41 0 .93.29 1.16.64l45.33 70.29 45.33-70.29c.23-.35.74-.64 1.16-.64h13.25c.41 0 .85.34.98.73l37.21 117.83c.13.4-.11.72-.53.72h-35.28c-.41 0-.85-.33-.97-.72l-18.27-62.98-33.62 55.04c-.21.35-.74.64-1.14.64h-16.24zm-88.21-58.71c-.08-.33-.38-.6-.73-.6h-100.55c-5.32 0-9.63 4.31-9.63 9.63s4.31 9.63 9.63 9.63h59.75c-7.11 18.8-31.17 32.63-59.75 32.63-34.17 0-61.87-19.78-61.87-44.19s27.7-44.18 61.87-44.18c18.68 0 35.4 5.91 46.75 15.23.04.04.08.06.11.1.13.08.26.13.41.13h41.09c.41 0 .75-.34.75-.75 0-.18-.08-.34-.19-.48-.01-.03-.04-.05-.06-.08-17.48-18.63-50.73-31.21-88.87-31.21-56.31 0-101.94 27.42-101.94 61.23s45.64 61.24 101.94 61.24 101.95-27.41 101.95-61.24c0-2.39-.24-4.76-.68-7.09zm293.93-54.13c56.31 0 101.95 27.41 101.95 61.23s-45.65 61.23-101.95 61.23-101.95-27.41-101.95-61.23 45.65-61.23 101.95-61.23zm0 105.42c34.17 0 61.89-19.78 61.89-44.19s-27.71-44.19-61.89-44.19-61.89 19.78-61.89 44.19 27.71 44.19 61.89 44.19z" fill="#005bac"/><path d="m991.11 227.67-48.51-82.99c-.84-1.43-2.68-1.91-4.11-1.08-.92.54-1.49 1.53-1.49 2.59v119.38c0 5.36-4.34 9.71-9.7 9.71h-42.68c-5.36 0-9.7-4.35-9.7-9.71v-239.82c0-5.36 4.34-9.71 9.7-9.71h46.99c3.35 0 6.46 1.73 8.23 4.58l62.45 101.69c1.45 2.36 4.53 3.09 6.88 1.65.67-.41 1.23-.98 1.65-1.65l62.44-101.69c1.77-2.84 4.88-4.57 8.23-4.58l47-.02c5.36 0 9.7 4.34 9.7 9.7v187.85s0 52.01 0 52.01c0 5.36-4.34 9.71-9.7 9.71h-42.68c-5.36 0-9.7-4.35-9.7-9.71v-119.55c0-1.66-1.34-3-3-3-1.06 0-2.04.56-2.58 1.47l-49.49 83.23c-1.77 2.86-4.89 4.6-8.25 4.6h-13.4c-3.38 0-6.52-1.76-8.28-4.65zm740.77 0-48.51-82.99c-.84-1.43-2.68-1.91-4.11-1.08-.92.54-1.49 1.53-1.49 2.59v119.38c0 5.36-4.34 9.71-9.7 9.71h-42.68c-5.36 0-9.7-4.35-9.7-9.71v-239.82c0-5.36 4.34-9.71 9.7-9.71h46.99c3.35 0 6.46 1.73 8.23 4.58l62.45 101.69c1.45 2.36 4.53 3.09 6.88 1.65.67-.41 1.23-.98 1.65-1.65l62.44-101.69c1.77-2.84 4.88-4.57 8.23-4.58l47-.02c5.36 0 9.7 4.34 9.7 9.7v187.85s0 52.01 0 52.01c0 5.36-4.34 9.71-9.7 9.71h-42.68c-5.36 0-9.7-4.35-9.7-9.71v-119.55c0-1.66-1.34-3-3-3-1.06 0-2.04.56-2.58 1.47l-49.49 83.23c-1.77 2.86-4.89 4.6-8.25 4.6h-13.4c-3.38 0-6.52-1.76-8.28-4.65zm-486.98 47.62c-25.55 0-44.11-8.16-54.73-22.87-10.63-14.71-15.94-32.98-15.94-54.79v-104.83c0-5.36 4.34-9.71 9.7-9.71h43.22c5.35 0 9.7 4.35 9.7 9.71v103.31c0 8.63 2.15 15.22 6.45 19.79s10.37 6.85 18.22 6.85c4.81 0 10.5-1.27 17.08-3.81 10.98-4.23 18.22-14.78 18.22-26.55v-99.59c0-5.36 4.34-9.71 9.7-9.71h43.22c5.35 0 9.7 4.35 9.7 9.71v172.79c0 5.36-4.34 9.71-9.7 9.71h-43.22c-5.35 0-9.7-4.35-9.7-9.71v-3.88s-2.25.97-13.47 5.18c-11.23 4.21-24.77 8.41-38.43 8.41zm740.78 0c-25.55 0-44.11-8.16-54.73-22.87-10.63-14.71-15.94-32.98-15.94-54.79v-104.83c0-5.36 4.34-9.71 9.7-9.71h43.22c5.35 0 9.7 4.35 9.7 9.71v103.31c0 8.63 2.15 15.22 6.45 19.79s10.37 6.85 18.22 6.85c4.81 0 10.5-1.27 17.08-3.81 10.98-4.23 18.22-14.78 18.22-26.55v-99.59c0-5.36 4.34-9.71 9.7-9.71h43.22c5.35 0 9.7 4.35 9.7 9.71v172.79c0 5.36-4.34 9.71-9.7 9.71h-43.22c-5.35 0-9.7-4.35-9.7-9.71v-3.88s-2.25.97-13.47 5.18c-11.23 4.21-24.77 8.41-38.43 8.41zm-519.55 0c-25.55 0-44.11-8.16-54.73-22.87-10.63-14.71-15.94-32.98-15.94-54.79v-104.83c0-5.36 4.34-9.71 9.7-9.71h43.22c5.35 0 9.7 4.35 9.7 9.71v103.31c0 8.63 2.15 15.22 6.45 19.79s10.37 6.85 18.22 6.85c4.81 0 10.5-1.27 17.08-3.81 10.98-4.23 18.22-14.78 18.22-26.55v-99.59c0-5.36 4.34-9.71 9.7-9.71h43.22c5.35 0 9.7 4.35 9.7 9.71v172.79c0 5.36-4.34 9.71-9.7 9.71h-43.22c-5.35 0-9.7-4.35-9.7-9.71v-3.88s-2.25.97-13.47 5.18c-11.23 4.21-24.77 8.41-38.43 8.41zm740.78 0c-25.55 0-44.11-8.16-54.73-22.87-10.63-14.71-15.94-32.98-15.94-54.79v-104.83c0-5.36 4.34-9.71 9.7-9.71h43.22c5.35 0 9.7 4.35 9.7 9.71v103.31c0 8.63 2.15 15.22 6.45 19.79s10.37 6.85 18.22 6.85c4.81 0 10.5-1.27 17.08-3.81 10.98-4.23 18.22-14.78 18.22-26.55v-99.59c0-5.36 4.34-9.71 9.7-9.71h43.22c5.35 0 9.7 4.35 9.7 9.71v172.79c0 5.36-4.34 9.71-9.7 9.71h-43.22c-5.35 0-9.7-4.35-9.7-9.71v-3.88s-2.25.97-13.47 5.18c-11.23 4.21-24.77 8.41-38.43 8.41zm-1209.57 338.5h-111.22c-6.19 0-11.2-4.87-11.2-10.87v-268.56c0-6.01 5.02-10.87 11.2-10.87h111.22c46.51 0 81.62 13.45 105.31 40.34 23.69 26.9 35.54 61.26 35.54 103.1 0 44.97-12.87 80.69-38.61 107.16s-59.82 39.7-102.24 39.7zm-1.04-232.24h-47.3c-2.76 0-5.01 2.24-5.01 5.01v164.17c0 2.76 2.24 5.01 5.01 5.01h44.06c21.6 0 39.35-7.17 53.23-21.51 13.89-14.34 20.83-36.83 20.83-67.46 0-25.34-5.94-45.88-17.82-61.61s-29.55-23.6-53-23.6zm275.53 232.24c-61.09 0-110.62-47.01-110.62-108.61s49.52-108.61 110.62-108.61 110.62 47.47 110.62 108.61-49.52 108.61-110.62 108.61zm.5-57.06c25.98 0 47.05-22.32 47.05-51.05s-21.06-51.05-47.05-51.05-47.05 22.1-47.05 51.05 21.06 51.05 47.05 51.05zm400.59-159.9c27.4 0 47.24 8.31 59.51 24.92s18.41 37.24 18.41 61.87v119.46c0 6.06-4.88 10.97-10.91 10.97h-48.82c-6.02 0-10.91-4.91-10.91-10.97v-117.74c0-9.74-2.35-17.19-7.06-22.34-4.71-5.16-11.06-7.73-19.05-7.73-5.99 0-12.63 1.58-19.91 4.73-12.34 5.34-20.3 17.54-20.21 30.98l.67 112.04c.04 6.06-4.82 11-10.84 11.04h-48.82c-6.02 0-10.91-4.91-10.91-10.97v-117.74c0-9.74-2.35-17.19-7.06-22.34-4.71-5.16-11.06-7.73-19.05-7.73-5.42 0-11.42 1.36-17.98 4.08-11.66 4.83-19.27 16.22-19.27 28.84v114.89c0 6.06-4.88 10.97-10.91 10.97h-48.39c-6.02 0-10.91-4.91-10.91-10.97v-195.28c0-6.06 4.88-10.97 10.91-10.97h48.39c6.02 0 10.91 4.91 10.91 10.97v4.37c.43-.92 5.07-3.24 13.91-6.97 13.27-5.59 27.47-8.38 42.6-8.38 14.27 0 26.4 2.43 36.39 7.3s18.12 11.31 24.4 19.34c8.56-6.59 19.55-12.68 32.97-18.26 13.41-5.59 27.4-8.38 41.96-8.38zm197.57 0c26.78 0 48.27 8.29 63.93 23.77 15.67 15.48 23.5 32.4 23.5 57.35v125.14c0 6.06-4.89 10.97-10.91 10.97h-48.68c-6.03 0-10.91-4.91-10.91-10.97v-1.1s-12.6 12.07-33.28 12.07c-25.93 0-45.71-6.23-58.38-19.13-12.68-12.9-19.02-29.82-19.02-50.75 0-22.36 7.41-38.92 22.22-49.67s34.19-16.13 58.12-16.13h30.34c-1.47-6.88-5.11-11.55-9.3-15.72s-10.79-7.17-19.76-7.5-17.16 1.29-27.56 3.87c-4.68 1.16-10.33 2.91-16.94 5.25-5.67 2.01-11.88-.97-13.9-6.66l-11.57-30.55c-1.99-5.59.81-11.76 6.31-13.91 11.27-4.42 21.17-7.67 29.69-9.76 16.38-4.01 31.57-6.57 46.1-6.57zm11.27 125.39h-24.71c-6.42 0-11.58 2.33-15.48 7-3.91 4.67-5.86 10.29-5.86 16.86 0 5.19 1.74 9.68 5.23 13.48s7.74 5.7 12.76 5.7c5.3 0 10.81-.41 16.53-3.52 2.48-1.35 5.67-3.36 9.57-6.04 4.36-2.99 6.96-7.93 6.96-13.21v-15.27c0-2.76-2.24-5.01-5.01-5.01zm173.57-108.54c6.05 0 10.95 4.89 10.95 10.92v178.37c0 6.03-4.9 10.92-10.95 10.92h-48.18c-6.05 0-10.95-4.89-10.95-10.92v-178.37c0-6.03 4.9-10.92 10.95-10.92zm-24.2-90.34c19.9 0 36.04 15.47 36.04 35.39s-16.13 35.39-36.04 35.39-36.04-15.32-36.04-35.39 16.13-35.39 36.04-35.39zm209.7 73.49c28.87 0 49.52 8.31 61.95 24.92s18.65 37.24 18.65 61.87v119.46c0 6.06-4.9 10.97-10.94 10.97h-48.43c-6.04 0-10.94-4.91-10.94-10.97v-117.74c0-9.74-2.64-17.19-7.93-22.34-5.29-5.16-12.36-7.73-21.22-7.73-6 0-13 1.58-21.01 4.73-12.93 5.09-21.44 17.58-21.44 31.48v111.61c0 6.06-4.9 10.97-10.94 10.97h-48.43c-6.04 0-10.94-4.91-10.94-10.97v-195.28c0-6.06 4.9-10.97 10.94-10.97h48.43c6.04 0 10.94 4.91 10.94 10.97v5.47s7.34-3.29 16.93-7.63c9.59-4.35 29.23-8.81 44.37-8.81z" fill="#2b2b2b" fill-rule="evenodd"/><path d="m520.71 508.06c0 61.95 44.17 106 106.03 106s106.03-44.05 106.03-106v-400.45c0-95.73-100.95-137.64-170.67-84.02l-181.34 139.46c-10.36 7.54-18.37 7.54-28.73 0l-181.35-139.46c-46.42-35.69-112.98-27.01-148.69 19.39-35.7 46.4-27.02 112.95 19.4 148.65l260.35 200.22c39.62 31 88.67 32.01 129.29 0 41.29-31.79 64.86-49.91 70.72-54.39 8.78-6.71 18.96-2.09 18.96 9.34v161.25z" fill="#00bda6"/><circle cx="108.61" cy="505.03" fill="#2b2b2b" r="108.61"/></svg>