<svg xmlns="http://www.w3.org/2000/svg" width="218.311" height="54.452" viewBox="0 0 218.311 54.452">
  <defs>
    <style>
      .cls-1 {
        fill: #f4e829;
      }

      .cls-2 {
        fill: #012155;
      }

      .cls-3 {
        fill: #fff;
      }
    </style>
  </defs>
  <title>アセット 11</title>
  <g id="レイヤー_2" data-name="レイヤー 2">
    <g id="レイヤー_1-2" data-name="レイヤー 1">
      <g>
        <path class="cls-1" d="M160.962,5.115a5.11,5.11,0,0,1-5.11,5.111H89.161a5.1,5.1,0,0,1-5.105-5.111h0A5.106,5.106,0,0,1,89.161,0h66.691a5.111,5.111,0,0,1,5.11,5.115Z"/>
        <path class="cls-2" d="M169.376,39.321c-.017.522-.249,1.225-.956,1.225a.926.926,0,0,1-.922-.752,1.555,1.555,0,0,1-.066-.5c0-.846.514-1.171.947-1.171A1.049,1.049,0,0,1,169.376,39.321Zm-2.882-3.574v5.581h.955v-.41a1.455,1.455,0,0,0,1.1.529,1.94,1.94,0,0,0,1.823-2.111,1.912,1.912,0,0,0-1.759-2.079,1.7,1.7,0,0,0-1.163.451V35.747Zm7.729,1.629-1.018,3.447-.226.743c-.272.83-.57,1.123-1.316,1.123a3.112,3.112,0,0,1-.577-.048v-.829a1.393,1.393,0,0,0,.256.023.807.807,0,0,0,.434-.1.554.554,0,0,0,.225-.324l-1.454-4.032h1.036l.89,2.949.763-2.949Zm22.832,3.633h.577a.1.1,0,0,0,.08-.045l2.386-3.847,1.3,4.4a.073.073,0,0,0,.067.051h2.5a.036.036,0,0,0,.037-.05l-2.64-8.235a.079.079,0,0,0-.069-.051h-.94a.114.114,0,0,0-.083.045l-3.217,4.913-3.217-4.913a.11.11,0,0,0-.081-.045h-.942a.079.079,0,0,0-.068.051l-2.64,8.235a.036.036,0,0,0,.036.05h2.5a.074.074,0,0,0,.068-.051l1.3-4.4,2.386,3.847a.1.1,0,0,0,.08.045Zm-6.835-4.1h0a.054.054,0,0,0-.051-.041h-7.135a.673.673,0,1,0,0,1.345h4.239c-.506,1.314-2.211,2.281-4.239,2.281-2.425,0-4.391-1.383-4.391-3.089s1.966-3.088,4.391-3.088a5.317,5.317,0,0,1,3.317,1.065l.008.007a.062.062,0,0,0,.03.009H189.3a.053.053,0,0,0,.054-.053.051.051,0,0,0-.013-.033l0-.005a8.9,8.9,0,0,0-6.305-2.181c-4,0-7.234,1.916-7.234,4.279s3.238,4.28,7.234,4.28,7.233-1.916,7.233-4.28A2.563,2.563,0,0,0,190.22,36.906Zm20.858-3.784c-4,0-7.236,1.916-7.236,4.279s3.239,4.28,7.236,4.28,7.233-1.916,7.233-4.28S215.072,33.122,211.078,33.122Zm0,7.368c-2.427,0-4.392-1.383-4.392-3.089s1.965-3.088,4.392-3.088,4.389,1.383,4.389,3.088S213.5,40.49,211.078,40.49Z"/>
        <path d="M160.961,13.192H130.248v8.274h30.713ZM129,21.466V13.192H111.286v8.274Zm-44.947,0H110.04V13.192H84.056ZM113.4,3.461a5.774,5.774,0,0,0,1.34.635,2.343,2.343,0,0,0-.426.849,6.224,6.224,0,0,1-1.305-.665l-.412-.266v.445h-3.779V4.117l-.063.045a7.25,7.25,0,0,1-1.572.817,2,2,0,0,0-.407-.813,7.776,7.776,0,0,0,1.314-.574l.049-.031s-.674-.635-.727-.678c.041-.059.426-.564.48-.625.059.061.855.849.855.849l.035-.031a3.666,3.666,0,0,0,.729-.91l.034-.062h-2.287V1.392l2.805,0a.164.164,0,0,1,.061-.04c.042.045.519.643.554.686A7.914,7.914,0,0,1,109.5,3.549l-.073.069h2.61l.085,0s-.358-.4-.363-.409a6.047,6.047,0,0,1-1.031-1.635c.061-.037.77-.445.838-.486a4.978,4.978,0,0,0,.407.871L112,2s.778-.714.847-.771c.046.062.465.628.507.682-.058.049-.907.658-.907.658l-.038.026.369.384s.851-.8.906-.852c.05.055.481.616.52.677l-.861.62Zm-1.083,4.6h2.178v.8h-7.465v-.8h2l-.314-.853h-.625V4.921h5.233V7.208c-.071,0-.66.024-.66.024Zm.113-1.561V5.626h-3.439V6.5Zm-.743.708h-2.007l.021.052s.325.776.362.8l1.234-.022Zm5.875.575V5.662h.933V4.887h-.933V4.293h.63V3.526h-1.8l.25-.334.515-.769.022-.048.035.037s1.033.85,1.105.917c.042-.075.46-.685.493-.741a6.688,6.688,0,0,0-1.158-.944l-.03-.027.061-.1s.022-.038.04-.078c-.078-.024-.81-.3-.865-.321A7.412,7.412,0,0,1,115.33,3.3a3.453,3.453,0,0,1,.474.816c.057-.044.332-.3.332-.3v.478h.521v.594h-1.031v.775h1.031V6.943l-.079.015s-.348-.778-.369-.849c-.067.031-.662.255-.738.279a7.625,7.625,0,0,1,.472,1.13c.063-.018.714-.249.714-.249v.666l-1.152.119c.01.077.132.835.151.91a22.585,22.585,0,0,0,2.836-.574v-.8l-.209.045Zm-12.693.17c-.2-.051-.383-.312-.578-.792a7.032,7.032,0,0,1-.52-1.911,14.1,14.1,0,0,1-.153-1.635v-.04h2.2V2.664h-1s.485-.514.536-.565a9.605,9.605,0,0,0-1.079-.913c-.046.062-.482.632-.523.687.057.05.922.791.922.791h-1.1s-.016-1.34-.016-1.422H102.53c0,.082.019,1.422.019,1.422H98.387v.911h4.2v.04a15.99,15.99,0,0,0,.182,1.884,7.821,7.821,0,0,0,.623,2.193,3.006,3.006,0,0,0,.807,1.047,1.511,1.511,0,0,0,.884.393.888.888,0,0,0,.524-.281,3.3,3.3,0,0,0,.535-1.2,4.887,4.887,0,0,1-.965-.526C105.117,7.606,105.018,7.889,104.866,7.953ZM93,1.788l-.919-.5A11.007,11.007,0,0,1,90.83,3.342a8.38,8.38,0,0,1-1.4,1.388,3.1,3.1,0,0,1,.637.862A9.337,9.337,0,0,0,93,1.788Zm1.066,4.45a10.259,10.259,0,0,1,1.09,1.3l.038.065-2.853.206s1.4-3.226,1.43-3.3c-.071-.03-1-.412-1.061-.441-.03.081-1.418,3.775-1.418,3.775l-.007.021s-1.279.056-1.372.062c.017.08.174.979.183,1.039,1.961-.132,3.848-.326,5.6-.551.037.02.382.634.444.74.068-.055.828-.6.886-.635a12.01,12.01,0,0,0-2.151-2.84C94.822,5.709,94.133,6.193,94.07,6.238Zm6.954,1.15V5.555h1.2V4.648H98.691v.907h1.3V7.6l-1.63.178c.016.083.211,1.016.228,1.084.076-.02,3.948-.731,4.019-.739V7.174c-.095.012-1.58.264-1.58.264Zm-5-3.885a12.466,12.466,0,0,1-1.359-2.216c-.063.047-.775.46-.837.5A12.106,12.106,0,0,0,95.32,4.291a8.773,8.773,0,0,0,1.453,1.434,2.4,2.4,0,0,1,.693-.829A6.141,6.141,0,0,1,96.024,3.5Zm34.149-1.926h-1.1V3.332h-1.947V1.83h-1.106v1.5h-1.551v1.01h1.551V6.224h1.106V4.342h1.947v.043a6.152,6.152,0,0,1-.278,1.9c-.293.913-1.276,1.453-2.905,1.59a2.465,2.465,0,0,1,.59,1.089c1.943-.41,3.1-1.252,3.427-2.5a12.352,12.352,0,0,0,.264-2.078l0-.043h1.659V3.332h-1.663Zm15.761.161c-.049.046-.372.368-.424.428a5.449,5.449,0,0,1,.935.9c.044-.055.394-.409.439-.459A6.261,6.261,0,0,0,145.934,1.738Zm.327-.333a8.416,8.416,0,0,1,.929.862c.045-.046.39-.394.44-.449a7.089,7.089,0,0,0-.948-.841C146.636,1.023,146.313,1.351,146.261,1.405ZM143.794,7.54a2.817,2.817,0,0,1-1.376-.182c-.1-.067-.148-.209-.148-.446V5.074l.03-.006a18.367,18.367,0,0,0,4.174-1.054c-.049-.081-.565-.934-.6-.985a12.742,12.742,0,0,1-3.563,1.022l-.044.007V1.724h-1.105V7.368a.919.919,0,0,0,.487.911,8.268,8.268,0,0,0,3.124.345s1.923-.068,2-.068V7.438a12.535,12.535,0,0,1-1.823.1Zm9.253-2.266-.028-.024.023-.037A11.879,11.879,0,0,0,154.191,3.3s.209-.346.257-.413c-.04-.043-.663-.739-.707-.785-.031.022-.1.062-.1.062h-4.489V3.177h3.857l-.03.066a8.946,8.946,0,0,1-4.806,4.473,2.83,2.83,0,0,1,.468.479s.178.376.222.478A10.373,10.373,0,0,0,152.335,6.1l.027-.024.035.024a15.5,15.5,0,0,1,2.284,2.675c.057-.043.853-.652.911-.7A13.5,13.5,0,0,0,153.047,5.274Zm-32.828,1.4a8.272,8.272,0,0,1-1.706.676c.024.069.258.772.287.844.079-.033,1.439-.737,1.439-.737S120.222,6.776,120.219,6.674Zm12.5-.748h6.762V4.878h-6.762ZM119.378,5.26c-.057.033-.552.382-.61.427a4.619,4.619,0,0,1,.68.865c.062-.041.587-.415.658-.46A5.251,5.251,0,0,0,119.378,5.26Zm-1.734,1.754s-.04.074-.064.108l.044.027a2.292,2.292,0,0,1,.553.4c.038-.077.542-1.084.569-1.143-.055-.034-.6-.343-.67-.39A6.517,6.517,0,0,1,117.644,7.014Zm4.458-.295-.041-.037.053-.025s1.1-.7,1.169-.744c-.045-.062-.5-.658-.542-.716-.06.05-1.1.878-1.1.878l-.267-.64V4.79h1.9V3.983h-.714V1.451h-3.609v.727h2.679v.529h-2.481v.742h2.481v.534h-2.954V4.79h1.77V8.009c0,.008-.037.216-.037.216h-.663a3.863,3.863,0,0,1,.271.875,2.478,2.478,0,0,0,1.078-.166c.179-.1.27-.325.279-.709V7.134l.076.117a3.774,3.774,0,0,0,.542.612,4.884,4.884,0,0,0,.968.635,1.878,1.878,0,0,1,.56-.806,5.6,5.6,0,0,1-1.051-.626ZM89.877,37.812a3.767,3.767,0,1,1-3.762-3.77A3.771,3.771,0,0,1,89.877,37.812Zm-66.6-11.565a8.822,8.822,0,0,1,2.662,6.424c0,3.519-1.8,6.1-5.367,7.671A21.405,21.405,0,0,1,13.8,41.583l-.872.06s-.479-1.7-.7-2.472c-1.6,1.586-4.577,1.682-5.176,1.682A6.715,6.715,0,0,1,0,34.012c0-5.453,4.357-7.728,6.671-8.714v-.7H.889V17.561H6.671V13.406h7.077v4.155H19.4v6.622A8.049,8.049,0,0,1,23.275,26.247Zm-5.034,6.259c0-.73,0-2.1-3.415-2.1-.445,0-.808.03-1.078.055V34.88a10.988,10.988,0,0,0,1.885-.25C18.241,34.089,18.241,33.214,18.241,32.506Zm28.748-5.954h6.969V41.608H46.792v-.7H39.37v.7H32.294V34.32c-.662.234-1.224.424-1.787.615l-1.209.393-3.569-7.186,1.375-.278a46.5,46.5,0,0,0,6.881-1.882c-.249-.231-.5-.453-.757-.684-.792.431-1.455.738-2.111,1.028l-.881.392-4.013-6.786,1.322-.388a13.951,13.951,0,0,0,8.02-5.652l.338-.5,6.711.263,1.812.05s-.679,1.15-.828,1.4h8.848v5.649l-.189.271A25.747,25.747,0,0,1,46.989,26.552ZM39.733,21.5c.336.279.7.588,1.085.926.441-.316.85-.633,1.217-.926Zm7.059,11.6H39.37v1.059h7.422ZM77.681,15.452l.379-1.245-7.931-.869-.21.956a17.83,17.83,0,0,1-.48,1.809h-2.03a16.4,16.4,0,0,0-.906-2.115l-.36-.65-7.875,1.134.757,1.371c.045.086.09.171.135.26H54.34v6.545h.944V41.583h10.6c2.063,0,3.343-1.4,3.343-3.638V35.927h.528c.011.059.988,5.656.988,5.656h7.281c.969,0,3.228-.352,3.228-3.656V22.648h.915V16.1H77.45C77.534,15.874,77.618,15.654,77.681,15.452Zm23.683,18.88c-.175,1.223-.74,1.393-1.33,1.393-1.336,0-1.612-1.523-1.612-2.8,0-3.153,1.17-3.153,1.612-3.153a1.029,1.029,0,0,1,.814.271l.024.028a1.328,1.328,0,0,1,.338.893l.046,1.019h8.461L109.6,30.8c-.434-4.523-4.106-7.348-9.566-7.348-5.932,0-9.93,3.8-9.93,9.439,0,5.459,4,9.131,9.93,9.131,5.615,0,9.148-2.7,9.683-7.409l.136-1.2H101.5Zm29.176-1.74c0,5.824-3.791,9.434-9.9,9.434-6.015,0-9.9-3.571-9.9-9.106,0-5.837,3.78-9.464,9.872-9.464C126.643,23.456,130.54,27.047,130.54,32.592Zm-8.308,0a3.7,3.7,0,0,0-.792-2.572.839.839,0,0,0-.68-.262l-.028.009H120.7c-1.486,0-1.65,1.981-1.65,2.825,0,1.429.276,3.133,1.59,3.133C121.076,35.725,122.232,35.725,122.232,32.592Zm31.419-9.755a7.169,7.169,0,0,0-5.225,2.125,6.323,6.323,0,0,0-5.193-2.125,6.868,6.868,0,0,0-3.832,1.275V22.837h-7.813V41.583H139.9V32.2c0-2.358.624-2.358,1.084-2.358.667,0,1,0,1,2.128v9.61h8.309V32.2c0-2.358.628-2.358,1.086-2.358.66,0,.99,0,.99,2.128v9.61h8.312V30.7C160.676,25.412,158.378,22.837,153.651,22.837Zm9.525,2.862.013.052H162.7a1.278,1.278,0,0,1-.037-.272,1.042,1.042,0,0,0-.031-.249.312.312,0,0,0-.151-.147.456.456,0,0,0-.184-.035h-.224v.7h-.5V23.775h.548c.242,0,.38,0,.405,0a1.079,1.079,0,0,1,.394.1.517.517,0,0,1,.265.474.424.424,0,0,1-.143.361.686.686,0,0,1-.338.129.643.643,0,0,1,.286.114.527.527,0,0,1,.176.444v.177a.333.333,0,0,0,0,.063C163.169,25.663,163.176,25.684,163.176,25.7Zm-.5-1.314a.237.237,0,0,0-.165-.225,1.021,1.021,0,0,0-.311-.045h-.126V24.7h.206a.493.493,0,0,0,.291-.07A.29.29,0,0,0,162.678,24.385Zm1.456.38a1.746,1.746,0,0,1-.536,1.291,1.712,1.712,0,0,1-1.252.5,1.757,1.757,0,0,1-1.786-1.79,1.736,1.736,0,0,1,.556-1.309,1.764,1.764,0,0,1,1.23-.474,1.781,1.781,0,0,1,1.788,1.783Zm-.315.006a1.435,1.435,0,0,0-.43-1.035,1.371,1.371,0,0,0-1.035-.445,1.408,1.408,0,0,0-1.055.445,1.45,1.45,0,0,0-.424,1.035,1.472,1.472,0,1,0,2.944,0Z"/>
        <path class="cls-1" d="M86.14,35.114a2.694,2.694,0,1,0,2.684,2.7A2.69,2.69,0,0,0,86.14,35.114ZM7.817,14.5v4.143H2.038v4.873H7.817v2.5c-1.933.783-6.664,2.693-6.664,7.989A5.6,5.6,0,0,0,7.124,39.77c1.287,0,3.518-.312,4.542-1.469a4.372,4.372,0,0,0,.941-2l1.184,4.2a20.3,20.3,0,0,0,6.426-1.15,7.049,7.049,0,0,0,4.705-6.677,7.818,7.818,0,0,0-2.309-5.632c-1.59-1.535-3.689-2.206-7.368-2.206a12.632,12.632,0,0,0-2.1.132c-.082,0-.41.052-.41.052v-1.5h5.65V18.645h-5.65V14.5H7.817m0,16.251v2.78c0,.776,0,1.53-.882,1.53-.244,0-1.022-.128-1.022-1.347a3.351,3.351,0,0,1,1.9-2.963m4.921-1.207a6.778,6.778,0,0,0,.81-.137c.293-.019.753-.081,1.345-.081,3.094,0,4.49,1.055,4.49,3.18,0,.971-.082,2.47-3.469,3.176a12.122,12.122,0,0,1-3.226.273c.025-.35.05-.489.05-.818Zm15.175-8.961,2.824,4.765A26.657,26.657,0,0,0,33.4,24a26.51,26.51,0,0,1,2.583,2.4,45.972,45.972,0,0,1-8.607,2.533L29.9,34.012c1.048-.348,1.961-.644,3.526-1.235v7.759h4.92v-.7H47.92v.7h5v-12.9H43.751a27.568,27.568,0,0,0,7.665-7.212v-4.23H41.76c.244-.374.409-.648.857-1.453l-6.1-.237a15.066,15.066,0,0,1-8.6,6.083m10.242-.163h6.75a30.439,30.439,0,0,1-4.111,3.393,31.393,31.393,0,0,0-3.336-2.741c.189-.169.3-.277.7-.652M47.92,32.03v3.189H38.348V32.03Zm7.543-14.841v4.387H81.116V17.189H75.875a19.963,19.963,0,0,0,.8-2.041l-5.671-.621a15.853,15.853,0,0,1-.778,2.662H66.675A18.455,18.455,0,0,0,65.6,14.527l-5.59.805a13.714,13.714,0,0,1,.859,1.857h-5.4m.939,5.387V40.5h4.819V34.58h2.364v.808c0,.058,0,.569-.405.569H61.649l.674,4.544h3.6c1.617,0,2.264-1.073,2.264-2.558V22.576H56.4m4.819,3.612h2.364v1.333H61.221V26.188m0,3.96h2.364v1.328H61.221V30.148M69.234,22.9V34.854h4.833V22.9H69.234m6.047,12.111c0,.539,0,.7-.485.7H70.843l.835,4.791h6.375c2.152,0,2.152-1.965,2.152-2.575V22.546H75.281Zm33.258-4.1c-.446-4.589-4.346-6.369-8.489-6.369-5.114,0-8.84,3.058-8.84,8.353,0,5.242,3.844,8.042,8.84,8.042,4.291,0,8.078-1.738,8.607-6.449h-6.209a2.335,2.335,0,0,1-2.4,2.315c-1.8,0-2.689-1.538-2.689-3.881,0-1.831.383-4.236,2.689-4.236a2.048,2.048,0,0,1,1.595.626,2.333,2.333,0,0,1,.658,1.6Zm12.083-6.369c-5.242,0-8.787,2.99-8.787,8.38,0,5.3,3.838,8.015,8.812,8.015s8.816-2.65,8.816-8.344c0-4.825-3.375-8.051-8.841-8.051m.086,4.144c1.6-.083,2.6,1.637,2.6,3.907,0,2.937-1,4.21-2.658,4.21-1.568,0-2.661-1.273-2.661-4.21C117.986,30.851,118.606,28.686,120.708,28.686ZM132.665,40.5h6.156v-8.3c0-1.859.348-3.427,2.155-3.427,1.624,0,2.066.922,2.066,3.2V40.5H149.2v-8.3c0-1.859.351-3.427,2.161-3.427,1.629,0,2.071.922,2.071,3.2V40.5h6.148V30.7c0-4.232-1.421-6.78-5.944-6.78a6.263,6.263,0,0,0-5.354,2.837c-.738-1.659-2.277-2.837-5.057-2.837a6.343,6.343,0,0,0-4.913,2.755V23.923h-5.645Z"/>
        <g>
          <path d="M26.307,13.045h0c-1.44.238-2.609,1.706-3.131,3.068A10.922,10.922,0,0,1,22,18.406a3.155,3.155,0,0,1-.341.4,4.844,4.844,0,0,0-.831-1.363,3,3,0,0,0-2.976-1.048,2.061,2.061,0,0,0-1.363,1.932c0,.052,0,.1,0,.15a3.616,3.616,0,0,0,1.062,2.295c.007,0,.279.351.279.351a2.426,2.426,0,0,1,.458,1.253.49.49,0,0,1-.016.133c-.019.031-.088.127-.088.127s-.448.681-.448.681-.1.116-.1.116a2.178,2.178,0,0,0-.587,1.013l-.063.423a3.185,3.185,0,0,0,.732,2.076l.026.028c.437.531,2,2.194,3.779,1.482a2.376,2.376,0,0,0,.694-.386,3.246,3.246,0,0,0,3.339-.665,3.429,3.429,0,0,0,2.688-2.052l.051-.166a2.078,2.078,0,0,0,.055-.476,1.907,1.907,0,0,0-.231-.88c.02-.05.044-.1.044-.1s.046-.154.046-.154a1.88,1.88,0,0,0,.056-.439,1.8,1.8,0,0,0-.5-1.229,2.417,2.417,0,0,0-.182-.642,3.126,3.126,0,0,0-.382-.587,6.619,6.619,0,0,0,1.123-.9,4.629,4.629,0,0,0,1.14-2.182,5.239,5.239,0,0,0,.168-1.28,3.284,3.284,0,0,0-.708-2.17A2.755,2.755,0,0,0,26.307,13.045Z"/>
          <path class="cls-1" d="M27.833,23.823c.026-.06.062-.118.081-.177s.029-.1.043-.143a1.491,1.491,0,0,0-.431-1.454,2.054,2.054,0,0,0-.187-.669,2.978,2.978,0,0,0-.529-.758,7.063,7.063,0,0,0,1.323-1.036,4.364,4.364,0,0,0,1.075-2.059,3.562,3.562,0,0,0-.491-3.207A2.5,2.5,0,0,0,26.352,13.3a4.439,4.439,0,0,0-2.926,2.9,10.8,10.8,0,0,1-1.206,2.354,3.067,3.067,0,0,1-.666.7,4.616,4.616,0,0,0-.917-1.638,2.719,2.719,0,0,0-2.7-.97,1.8,1.8,0,0,0-1.178,1.694,3.3,3.3,0,0,0,1,2.261c-.01-.012.219.274.275.354a2.458,2.458,0,0,1,.5,1.6c0,.018,0,.024-.005.03-.008.032-.025.061-.132.21a5.953,5.953,0,0,0-.425.644,1.557,1.557,0,0,1-.137.169,1.85,1.85,0,0,0-.521.9,1.927,1.927,0,0,0-.061.378V24.9a2.919,2.919,0,0,0,.679,1.874c0,.011.009.026.021.029.4.488,1.863,2.039,3.478,1.405a2.392,2.392,0,0,0,.736-.429,3.074,3.074,0,0,0,3.276-.631A3.166,3.166,0,0,0,28,25.267a1.3,1.3,0,0,0,.042-.15A1.666,1.666,0,0,0,27.833,23.823Z"/>
          <path d="M26.421,13.717a4.087,4.087,0,0,0-2.572,2.6h-.006a11.476,11.476,0,0,1-1.26,2.459,4.042,4.042,0,0,1-1.337,1.2,4.285,4.285,0,0,0-.981-2.058,2.288,2.288,0,0,0-2.2-.853,1.339,1.339,0,0,0-.874,1.3,2.9,2.9,0,0,0,.9,1.934l.281.366a2.81,2.81,0,0,1,.582,1.926.83.83,0,0,1-.225.459l-.4.6-.2.24a1.508,1.508,0,0,0-.447,1,2.434,2.434,0,0,0,.582,1.58c.514.624,2.189,2.028,3.145,1.253l.121-.107a5.883,5.883,0,0,0,.451-.39,2.836,2.836,0,0,0,3.147-.478,2.847,2.847,0,0,0,2.48-1.58,1.375,1.375,0,0,0,.1-.5,1.258,1.258,0,0,0-.354-.847,1.392,1.392,0,0,0,.241-.734,1.169,1.169,0,0,0-.011-.183,1.217,1.217,0,0,0-.526-.773,2.277,2.277,0,0,0-1.055-1.583,8.927,8.927,0,0,0,1.808-1.341A4.429,4.429,0,0,0,28.9,16.276a2.6,2.6,0,0,0-.54-1.706A2.017,2.017,0,0,0,26.421,13.717Z"/>
          <path class="cls-3" d="M27.952,14.912c-1.463-1.752-3.092.262-3.607,1.6a11.869,11.869,0,0,1-1.327,2.57,5.934,5.934,0,0,1-2.238,1.778,3.918,3.918,0,0,0-.905-2.594c-.638-.727-2.036-1.278-2.154.137-.047.729.7,1.4,1.083,1.939a3.4,3.4,0,0,1,.684,2.326c-.072.488-.315.585-.692,1.238-.238.418-.555.476-.581,1.007a1.959,1.959,0,0,0,.476,1.235c.5.589,1.853,1.591,2.381,1.161a4.774,4.774,0,0,0,.765-.684c.94.315,2.267.724,3.065-.4L24.89,26.2c1.236.255,3.273-1.434,1.734-2.31.526-.5.684-1.092-.082-1.454l-.021.005c.189-.608-.577-1.432-1.111-1.609a1.632,1.632,0,0,0-1.473.6c1.042-1.085,2.489-1.547,3.495-2.594C28.253,18.047,28.767,15.874,27.952,14.912Z"/>
          <path d="M27.193,23.949a1.679,1.679,0,0,0,.365-.573.921.921,0,0,0-.544-1.16,1.167,1.167,0,0,0-.1-.66,2.278,2.278,0,0,0-1.194-1.119c-.352-.229-1.109.4-1.69.675a.224.224,0,0,0-.066.355.281.281,0,0,0,.379.016c.45-.4.832-.651,1.213-.534a1.77,1.77,0,0,1,.871.832.609.609,0,0,1,.055.463c-.107.261-.852.445-1.252.553l-.452.128A1.329,1.329,0,0,1,23.7,22.8c-.028-.021-.093-.105.008-.323a.275.275,0,0,0-.129-.364.28.28,0,0,0-.361.133.8.8,0,0,0,.077.919.88.88,0,0,0,.273.179.242.242,0,0,0-.063.123c-.091.962.365,1.334.715,1.476a.255.255,0,0,0-.18.25,1.344,1.344,0,0,0,1.118,1.425,2.547,2.547,0,0,0,2.457-1.446A1.056,1.056,0,0,0,27.193,23.949Zm-3.155-.434c0-.01-.008-.017-.008-.027a2.321,2.321,0,0,0,.923-.054l.409-.117a3.236,3.236,0,0,0,1.418-.611c.348.2.3.407.273.5a2.769,2.769,0,0,1-2.5,1.284C24.413,24.463,23.956,24.365,24.038,23.515ZM27.1,25a2.011,2.011,0,0,1-1.869,1.083c-.414-.058-.634-.365-.66-.916a.248.248,0,0,0-.067-.144,3.271,3.271,0,0,0,2.289-.707C27.231,24.6,27.136,24.9,27.1,25Z"/>
        </g>
        <path class="cls-3" d="M.076,43.107H2.488v3.31A2.154,2.154,0,0,1,4.336,45.4c1.6,0,2.356,1.021,2.356,2.843V52.2H4.278v-3.5c0-.663-.163-1.244-.849-1.244-.74,0-.941.522-.941,1.369V52.2H.076Zm11.76,7.215H11.45c-.671,0-.755-.219-.755-.826V47.1h1.162V45.584H10.7V43.529H8.314v2.055H7.423V47.1h.856v2.77c0,2.28.384,2.522,3.557,2.333Zm5.153,0h-.384c-.67,0-.755-.219-.755-.826V47.1h1.161V45.584H15.85V43.529H13.473v2.055h-.894V47.1h.853v2.77c0,2.28.389,2.522,3.557,2.333Zm3.263-4.738H18.077v8.868h2.416v-2.9a1.825,1.825,0,0,0,1.556.844c1.358,0,2.842-.94,2.842-3.55,0-1.82-.881-3.446-2.714-3.446a2.062,2.062,0,0,0-1.906,1.176h-.019v-.988m1.185,4.8c-.631,0-.993-.633-.993-1.556,0-.886.4-1.49.979-1.49.637,0,1.056.492,1.056,1.537C22.479,49.791,22.074,50.388,21.437,50.388Zm11.419-2.2h2.463v-2.6H32.856v2.6M35.319,52.2V49.6H32.856v2.6Zm3.371-9.1-2.225,9.177H37.93l2.219-9.177Zm3.227,0-2.223,9.177h1.465l2.216-9.177Zm8.413,2.477H48.286l-.939,4.093h-.021l-.93-4.093H44.039L46.047,52.2H48.4l.846-3.875h.027l.937,3.875H52.57l1.942-6.619H52.223l-.941,4.093h-.021Zm10.963,0H59.25l-.942,4.093h-.022l-.935-4.093H55L57.007,52.2h2.357l.849-3.875h.024l.941,3.875h2.358l1.934-6.619H63.188l-.942,4.093h-.021Zm10.959,0H70.206l-.938,4.093h-.02l-.927-4.093h-2.36L67.973,52.2h2.351l.848-3.875h.023l.94,3.875h2.357l1.939-6.619H74.145l-.938,4.093h-.025Zm6.94,6.619V49.6H76.733v2.6ZM83.756,45.4a3.253,3.253,0,0,0-3.451,3.574,3.461,3.461,0,1,0,6.92-.138A3.224,3.224,0,0,0,83.756,45.4m.033,1.762c.628-.033,1.026.707,1.026,1.674,0,1.247-.4,1.791-1.047,1.791-.616,0-1.047-.544-1.047-1.791C82.721,48.088,82.969,47.158,83.789,47.158ZM88.2,52.2h2.413V48.832c0-.847.2-1.369.939-1.369.685,0,.847.581.847,1.244v3.5H94.82V48.239c0-1.822-.757-2.843-2.355-2.843a2.35,2.35,0,0,0-2.057,1.218v-1.03H88.2Zm12.049,0h2.5V52.08a.9.9,0,0,1-.328-.847V48.139c0-1.582-.172-2.743-3.049-2.743-2.407,0-3.322.816-3.322,2.224h2.316c.061-.569.518-.646.852-.646.257,0,.787.063.787.548,0,1.236-4.328-.134-4.328,2.876a1.95,1.95,0,0,0,2.167,1.994,2.919,2.919,0,0,0,2.29-.9l.117.706m-1.31-1.3c-.478,0-.765-.222-.765-.549,0-.859,1.042-.657,1.829-1.079C100.065,50.186,99.786,50.9,98.941,50.9Zm4.709,1.3h2.416V48.931c0-.792.14-1.468.847-1.468.639,0,.818.4.818,1.369V52.2h2.409V48.931c0-.792.142-1.468.85-1.468.637,0,.809.4.809,1.369V52.2h2.419V48.285c0-1.8-.559-2.889-2.334-2.889a2.4,2.4,0,0,0-2.1,1.212A1.946,1.946,0,0,0,107.8,45.4a2.447,2.447,0,0,0-1.928,1.176v-.988H103.65Zm15.949,0h2.5V52.08a.9.9,0,0,1-.324-.847V48.139c0-1.582-.176-2.743-3.054-2.743-2.4,0-3.324.816-3.324,2.224h2.328c.055-.569.508-.646.848-.646.254,0,.789.063.789.548,0,1.236-4.331-.134-4.331,2.876a1.951,1.951,0,0,0,2.174,1.994,2.917,2.917,0,0,0,2.281-.9l.115.706m-1.305-1.3c-.481,0-.769-.222-.769-.549,0-.859,1.046-.657,1.835-1.079C119.418,50.186,119.138,50.9,118.294,50.9Zm6.96-1.408h4.608c.035-2.405-1.322-4.094-3.576-4.094a3.354,3.354,0,0,0-3.442,3.556,3.238,3.238,0,0,0,3.455,3.44c1.415,0,2.947-.539,3.366-2.183h-2.307a.962.962,0,0,1-.906.579,1.224,1.224,0,0,1-1.2-1.3m0-1.34A1.042,1.042,0,0,1,126.378,47a1.142,1.142,0,0,1,1.071,1.147Zm8.129,4.053V49.6h-2.467v2.6Zm7.879-4.089c-.173-1.962-1.705-2.718-3.334-2.718a3.3,3.3,0,0,0-3.469,3.556,3.231,3.231,0,0,0,3.469,3.44c1.688,0,3.169-.745,3.38-2.751h-2.436c-.073.519-.314.982-.944.982-.7,0-1.052-.657-1.052-1.653,0-.781.149-1.812,1.052-1.812a.768.768,0,0,1,.63.279,1.035,1.035,0,0,1,.255.677Zm4.42-2.718a3.249,3.249,0,0,0-3.445,3.574,3.459,3.459,0,1,0,6.916-.138,3.225,3.225,0,0,0-3.471-3.436m.037,1.762c.627-.033,1.022.707,1.022,1.674,0,1.247-.4,1.791-1.043,1.791-.62,0-1.048-.544-1.048-1.791C144.65,48.088,144.893,47.158,145.719,47.158Zm4.373,5.045h2.419V48.931c0-.792.137-1.468.848-1.468.632,0,.81.4.81,1.369V52.2h2.416V48.931c0-.792.136-1.468.845-1.468.637,0,.815.4.815,1.369V52.2h2.41V48.285c0-1.8-.558-2.889-2.333-2.889a2.391,2.391,0,0,0-2.094,1.212,1.95,1.95,0,0,0-1.991-1.212,2.448,2.448,0,0,0-1.923,1.176v-.988h-2.222ZM25.635,50.94a2.189,2.189,0,0,0,.587.791,2.458,2.458,0,0,0,1,.51,5.326,5.326,0,0,0,1.386.163,5.729,5.729,0,0,0,1.223-.125,2.91,2.91,0,0,0,1.007-.41,2.052,2.052,0,0,0,.923-1.756,1.836,1.836,0,0,0-.443-1.236,3,3,0,0,0-1.582-.8L28.586,47.8a1.293,1.293,0,0,1-.541-.222.377.377,0,0,1-.115-.273.4.4,0,0,1,.144-.313.8.8,0,0,1,.524-.156.746.746,0,0,1,.518.178.7.7,0,0,1,.224.46h2.192A1.984,1.984,0,0,0,30.8,46.01a3.358,3.358,0,0,0-2.212-.592,4.161,4.161,0,0,0-1.66.282,2.182,2.182,0,0,0-.966.764,1.941,1.941,0,0,0-.325,1.114,1.761,1.761,0,0,0,.414,1.177,2.824,2.824,0,0,0,1.456.763l1.363.357a.684.684,0,0,1,.371.2.481.481,0,0,1,.107.313.536.536,0,0,1-.188.413.8.8,0,0,1-.549.169.8.8,0,0,1-.857-.827H25.451A2.992,2.992,0,0,0,25.635,50.94ZM2.871.373H.964v9.912H2.871V4.951A25.3,25.3,0,0,1,7.252,7.317l.925-1.9A31.725,31.725,0,0,0,2.871,3.05V.373M5.7,2.939l.93-.5A9.678,9.678,0,0,0,5.673.8l-.9.424A10.909,10.909,0,0,1,5.7,2.939m2.43-1.212A8.955,8.955,0,0,0,7.165.2L6.247.641a10.367,10.367,0,0,1,.938,1.582Zm9.829,5.389a21.127,21.127,0,0,0-2.28-2.187A20.406,20.406,0,0,0,17.59.954L15.708.4a18.466,18.466,0,0,1-1.5,3.425A32.125,32.125,0,0,0,11.266,2L10.131,3.38a21.979,21.979,0,0,1,3.026,2A10.647,10.647,0,0,1,8.557,8.7l1.1,1.472a14.158,14.158,0,0,0,4.867-3.651,20.471,20.471,0,0,1,2,2.047Zm7.571-2.828a21.872,21.872,0,0,0,3.2-2.924L27.145.251a17.27,17.27,0,0,1-3.436,3.193,16.49,16.49,0,0,1-4.7,2.276l.969,1.522a19.253,19.253,0,0,0,3.684-1.68v4.6h1.863Zm7.586-.1.935-1.658A15.227,15.227,0,0,0,30.427.911l-.795,1.546a13.78,13.78,0,0,1,3.479,1.732m-2.737,5.966c3.694-.551,7.152-1.68,8.885-7.647L37.6,1.656c-1.314,4.734-3.67,6.2-7.81,6.556Zm19.439.476.971-1.7A6.313,6.313,0,0,1,49,7.36a14.339,14.339,0,0,0,1.482-5.047V.729H45.823V.271h-5.69V1.815h.495V7.942a4.772,4.772,0,0,1-.574.045l.186,1.688c1.1-.165,2.67-.533,3.43-.732v1.736h1.556V9.473l.73,1.224a13.839,13.839,0,0,0,1.972-1.853,7.376,7.376,0,0,0,1.885,1.787M42.208,1.815H43.67v.977H42.208V1.815m0,2.381H43.67v.981H42.208V4.2M43.67,6.6v.864a14.027,14.027,0,0,1-1.462.261V6.6H43.67m2.063-3.7a11.119,11.119,0,0,0,1.234,4.414,9.442,9.442,0,0,1-1.741,1.674V1.815h.429v.491h3.236a10.042,10.042,0,0,1-.929,3.429,8.127,8.127,0,0,1-.814-3.275ZM59.057.552H52.509v1.73l3.882-.064-.224.18C52.689,5.52,52.4,5.779,51.275,6.645L52.352,8.13a19.116,19.116,0,0,1,2.325-2.194,3.921,3.921,0,0,1,2.374-.777c1.855,0,2.285,1.078,2.285,1.779a1.747,1.747,0,0,1-1.47,1.689,1.967,1.967,0,0,0,.049-.381,1.854,1.854,0,0,0-2-1.856,2.012,2.012,0,0,0-2.19,1.844c0,.358.153,2.051,2.918,2.051,3.159,0,4.554-1.573,4.554-3.428a3.128,3.128,0,0,0-3.278-3.211,2.431,2.431,0,0,0-.969.144c.352-.3.438-.382,2.1-1.832V.552M56.588,8.844c-.178.015-.274.04-.421.04-.249,0-1.039-.032-1.039-.618,0-.33.29-.548.7-.548a.8.8,0,0,1,.8.865A1.222,1.222,0,0,1,56.588,8.844ZM66.367.315,64.521.251c-.031.436-.055.7-.129,1.292H62.611v1.7H64.1a14.922,14.922,0,0,1-.437,1.793A26.657,26.657,0,0,1,62.427,8.57l1.809.5A48.1,48.1,0,0,0,65.89,3.246h2.2v-1.7H66.17c.062-.443.07-.487.15-.98.008-.037.032-.19.047-.248m5.985,2.962-.144-1.913a22.986,22.986,0,0,0-3.54.337l.11,4.086a5.772,5.772,0,0,0-.662-.043c-2.171,0-2.822,1.33-2.822,2.31,0,1.237.894,2.247,2.739,2.247,1.222,0,2.3-.5,2.349-1.766l.009-.235c.142.139.188.175.617.559.174.17.452.478.593.634l.97-1.726a9.146,9.146,0,0,0-2.046-1.438L70.456,3.3a6.984,6.984,0,0,1,1.018-.071,7.925,7.925,0,0,1,.878.045M68.821,8.028c0,.272-.022.743-.914.743a1.093,1.093,0,0,1-.879-.3.677.677,0,0,1-.179-.455c0-.778,1.033-.794,1.184-.794a1.915,1.915,0,0,1,.788.161Zm7.221-5.656-1.788-.121a34.158,34.158,0,0,0-.268,4.687l1.749.069v-.33a4.491,4.491,0,0,1,3.129-1.262c.24,0,1.563.057,1.563,1.283S79.42,8.583,76.47,8.583c-.538,0-1.393-.028-2.557-.143l.341,1.777c.44.018.666.031,1.678.031.385,0,1.08,0,2-.067a6.356,6.356,0,0,0,2.659-.6A2.968,2.968,0,0,0,82.3,6.748a2.862,2.862,0,0,0-3.109-2.906,7.238,7.238,0,0,0-1.844.27,4.883,4.883,0,0,0-1.573.694,13.91,13.91,0,0,1,.264-2.434M80.95.948A19.538,19.538,0,0,0,75.909.237l-.3,1.651a17.958,17.958,0,0,1,4.929.929Zm6.387,17.537v1.327h1.3V18.485ZM94.115,17c-.033-1.082-.175-1.782-2.211-1.782-1.913,0-2.372.377-2.372,2.321,0,1.959.477,2.333,2.414,2.333,1.541,0,2.182-.286,2.182-1.884H92.962c.018.8-.305.8-1.191.8-1.011,0-1.069-.229-1.069-1.216,0-1.241.15-1.271,1.234-1.271.726,0,1.026.05,1.022.7Zm5.3.462c0-2.023-.644-2.244-2.31-2.244-1.038,0-1.474.1-1.874.453-.233.224-.437.548-.437,1.994,0,1.058.161,1.453.447,1.746.317.348.743.461,1.987.461.965,0,1.379-.118,1.741-.461.247-.228.446-.566.446-1.949m-3.455.093c0-1.1.052-1.253,1.091-1.253,1.005,0,1.2.023,1.2,1.176,0,1.183-.066,1.311-1.081,1.311C96.033,18.787,95.956,18.721,95.956,17.553Zm4.166-2.269v4.528H101.3V17.043c0-.255,0-.737.769-.737.677,0,.677.414.677.6v2.9H103.9V16.986c0-.521.288-.68.778-.68.465,0,.673.2.673.547v2.959h1.16v-3.3a1.433,1.433,0,0,0-.17-.752c-.257-.545-1.155-.545-1.249-.545a1.519,1.519,0,0,0-1.327.632c-.184-.316-.366-.632-1.2-.632a1.419,1.419,0,0,0-1.3.557l-.02-.489Zm34.215,3.2v1.327h1.294V18.485ZM141.113,17c-.031-1.082-.173-1.782-2.21-1.782-1.913,0-2.372.377-2.372,2.321,0,1.959.474,2.333,2.41,2.333,1.544,0,2.189-.286,2.189-1.884h-1.164c.01.8-.313.8-1.194.8-1.013,0-1.074-.229-1.074-1.216,0-1.241.154-1.271,1.236-1.271.731,0,1.032.05,1.021.7Zm5.3.462c0-2.023-.644-2.244-2.318-2.244-1.035,0-1.469.1-1.872.453-.225.224-.436.548-.436,1.994,0,1.058.171,1.453.448,1.746.321.348.739.461,1.987.461.965,0,1.384-.118,1.744-.461.246-.228.447-.566.447-1.949m-3.455.093c0-1.1.046-1.253,1.089-1.253,1.007,0,1.2.023,1.2,1.176,0,1.183-.061,1.311-1.073,1.311C143.033,18.787,142.958,18.721,142.958,17.553Zm4.31.932v1.327h1.3V18.485Zm4.339-3.2h-1.218v3.989c0,.265-.065.387-.259.448a3.769,3.769,0,0,1-.794.031v1.082h.334c.858,0,1.4,0,1.7-.379a1.447,1.447,0,0,0,.233-.836V15.284m-1.229-1.528v1.059h1.254V13.756Zm3.124,1.528h-1.124v5.55h1.16V19.255a1.7,1.7,0,0,0,1.393.466c1.495,0,1.99-.547,1.99-2.192,0-1.191-.157-1.51-.4-1.809a1.738,1.738,0,0,0-1.484-.5c-1.053,0-1.293.256-1.514.524l-.022-.456m1.13.986c.814,0,1.122.068,1.122,1.19,0,.952-.088,1.216-1.095,1.216-.8,0-1.135-.081-1.135-1.133C153.524,16.465,153.713,16.27,154.632,16.27Zm-39.3,2.215v1.327h1.3V18.485Zm4.336-3.2h-1.216v3.989c0,.265-.063.387-.259.448a3.827,3.827,0,0,1-.8.031v1.082h.336c.863,0,1.4,0,1.7-.379a1.447,1.447,0,0,0,.23-.836V15.284m-1.23-1.528v1.059h1.251V13.756Zm3.124,1.528h-1.116v5.55H121.6V19.255a1.694,1.694,0,0,0,1.39.466c1.5,0,2-.547,2-2.192,0-1.191-.163-1.51-.409-1.809a1.716,1.716,0,0,0-1.479-.5c-1.054,0-1.29.256-1.514.524l-.025-.456m1.131.986c.811,0,1.126.068,1.126,1.19,0,.952-.093,1.216-1.094,1.216-.806,0-1.138-.081-1.138-1.133C121.589,16.465,121.78,16.27,122.7,16.27Z"/>
      </g>
    </g>
  </g>
</svg>
