<svg viewBox="0 0 218 50" fill="none" xmlns="http://www.w3.org/2000/svg">
<g id="logo">
<mask id="mask0_2276_942" style="mask-type:luminance" maskUnits="userSpaceOnUse" x="0" y="0" width="218" height="50">
<path d="M218 0.5H0V49.5H218V0.5Z" fill="white"/>
</mask>
<g mask="url(#mask0_2276_942)">
<path d="M34.5126 16.0267C31.6612 13.722 27.4766 14.2242 25.1747 17.081L22.0546 20.9526C21.2194 21.988 21.9536 23.5342 23.28 23.5342H32.4091C33.6739 23.5342 34.7676 24.4234 35.0294 25.6669L35.0842 25.9266L35.5087 25.3986C37.814 22.5366 37.369 18.3365 34.5126 16.0267Z" fill="#FF5577"/>
<path d="M16.5265 33.8899C19.3779 36.1946 23.5625 35.6923 25.8644 32.8355L28.9845 28.964C29.8197 27.9286 29.0855 26.3841 27.7591 26.3841H18.63C17.3652 26.3841 16.2715 25.4949 16.0079 24.2514L15.9532 23.9917L15.5287 24.5197C13.2233 27.3816 13.6683 31.5817 16.5248 33.8916" fill="#CCCCCF"/>
<path d="M82.3677 21.2793V30.3812C82.3677 33.2363 84.466 35.3432 88.1748 35.3432C91.6679 35.3432 93.9459 33.4272 93.9459 30.3021V21.2793H91.9195V29.7207C91.9195 32.6842 90.6581 33.6405 88.3682 33.6405C85.9669 33.6405 85.0239 32.4159 85.0239 29.6606V21.2776H82.3677V21.2793Z" fill="#808088"/>
<path d="M133.334 24.8413H130.815V35.1265H133.334V24.8413Z" fill="#808088"/>
<path d="M132.075 23.6528C132.901 23.6528 133.57 22.9804 133.57 22.1496C133.57 21.3189 132.901 20.6464 132.075 20.6464C131.248 20.6464 130.579 21.3189 130.579 22.1496C130.579 22.9804 131.248 23.6528 132.075 23.6528Z" fill="#808088"/>
<path d="M157.973 29.0758C158.053 27.2733 158.615 26.0865 160.119 26.0865C161.624 26.0865 162.07 27.3988 162.117 29.0758H157.975H157.973ZM160.118 24.6229C157.037 24.6229 155.226 26.8192 155.226 29.9633V30.0613C155.226 33.324 157.275 35.3415 160.456 35.3415C161.783 35.3415 162.976 35.0542 164.22 34.3302V32.569C163.041 33.4496 161.858 33.8761 160.491 33.8761C159.02 33.8761 157.941 32.8562 157.941 30.536H164.828C164.828 26.8536 163.438 24.6194 160.114 24.6194" fill="#808088"/>
<path d="M188.942 29.0758C189.021 27.2733 189.584 26.0865 191.087 26.0865C192.59 26.0865 193.04 27.3988 193.084 29.0758H188.942ZM191.087 24.6229C188.006 24.6229 186.197 26.8192 186.197 29.9633V30.0613C186.197 33.324 188.244 35.3415 191.428 35.3415C192.754 35.3415 193.947 35.0542 195.191 34.3302V32.569C194.012 33.4496 192.828 33.8761 191.462 33.8761C189.993 33.8761 188.913 32.8562 188.913 30.536H195.8C195.8 26.8536 194.411 24.6194 191.087 24.6194" fill="#808088"/>
<path d="M150.757 32.3419V26.3033H153.725V24.8396H150.757V21.7936H148.238V24.8396H146.864V26.3033H148.238V32.4984C148.238 34.165 149.599 35.3415 151.615 35.3415C152.527 35.3415 153.194 35.166 153.749 34.8014V33.5183C153.2 33.7196 152.743 33.7987 152.178 33.7987C151.329 33.7987 150.757 33.2277 150.757 32.3419Z" fill="#808088"/>
<path d="M45.0709 24.5782C45.0709 23.4482 45.8445 22.7843 47.3506 22.7843C48.9919 22.7843 50.0719 23.2435 51.4154 24.1258V21.8968C50.0582 21.3258 48.6599 21.085 47.3472 21.085C44.3486 21.085 42.2178 22.5693 42.2178 24.8018C42.2178 29.3785 49.2093 28.6389 49.2093 31.7141C49.2093 32.9353 48.3176 33.6233 47.034 33.6233C45.1411 33.6233 43.4518 32.6721 42.2469 31.6643V33.9604C43.6195 34.9476 45.3721 35.3243 47.2171 35.3243C50.1626 35.3243 52.0623 33.7746 52.0623 31.4579C52.0623 26.5664 45.0709 27.5296 45.0709 24.5782Z" fill="#808088"/>
<path d="M99.9773 22.9924H102.579C104.357 22.9924 105.55 23.8025 105.55 25.4794C105.55 27.2664 104.131 27.8959 102.579 27.8959H99.9756V22.9924H99.9773ZM108.405 25.3539C108.405 22.3388 105.887 21.2811 103.458 21.2811H97.3193V35.1265H99.9773V29.609H102.512L105.647 35.1265H108.708L105.394 29.2873C106.871 28.8866 108.405 27.6723 108.405 25.3539Z" fill="#808088"/>
<path d="M77.0381 35.1248H80.3584L74.6078 27.4212L80.0298 21.2793H77.7672L71.0205 28.921V21.2793H68.3625V35.1248H71.0205V31.4837L72.8073 29.4593L77.0381 35.1248Z" fill="#808088"/>
<path d="M57.2549 29.7586L59.4045 24.1912L61.5524 29.7586H57.2549ZM63.6251 35.1248H66.4747L61.092 21.1813H58.3913L53.0087 35.1248H55.1823L56.5977 31.4596H62.2079L63.6234 35.1248H63.6251Z" fill="#808088"/>
<path d="M141.986 24.6229C140.629 24.6229 139.251 25.5344 138.64 26.3635V24.8413H136.121V35.1248H138.64V27.9217C139.205 26.8657 140.146 26.348 140.938 26.348C141.781 26.348 142.448 27.005 142.448 27.8477V35.1248H144.967V27.2853C144.967 26.0281 144.096 24.6229 141.986 24.6229Z" fill="#808088"/>
<path d="M181.066 24.6229C179.709 24.6229 178.331 25.5344 177.72 26.3635V24.8413H175.201V35.1248H177.72V27.9217C178.287 26.8657 179.226 26.348 180.019 26.348C180.861 26.348 181.528 27.005 181.528 27.8477V35.1248H184.048V27.2853C184.048 26.0281 183.176 24.6229 181.066 24.6229Z" fill="#808088"/>
<path d="M169.623 26.6558V24.8396H167.104V35.1248H169.623V28.2227C170.664 27.0858 171.874 26.6593 173.424 26.6593V24.7398C171.804 24.7398 170.441 25.5327 169.623 26.6558Z" fill="#808088"/>
<path d="M114.33 29.7586L116.478 24.1912L118.627 29.7586H114.33ZM120.7 35.1248H123.55L118.167 21.1813H115.466L110.084 35.1248H112.257L113.673 31.4596H119.283L120.698 35.1248H120.7Z" fill="#808088"/>
<path d="M201.121 32.3419V26.3033H204.089V24.8396H201.121V21.7936H198.602V24.8396H197.228V26.3033H198.602V32.4984C198.602 34.165 199.963 35.3415 201.979 35.3415C202.891 35.3415 203.559 35.166 204.113 34.8014V33.5183C203.562 33.7196 203.107 33.7987 202.542 33.7987C201.693 33.7987 201.121 33.2277 201.121 32.3419Z" fill="#808088"/>
</g>
</g>
</svg>
