<?xml version="1.0" encoding="UTF-8"?>
<svg id="_レイヤー_2" data-name=" レイヤー 2" xmlns="http://www.w3.org/2000/svg" width="149.7" height="25.5" viewBox="0 0 149.7 25.5">
  <defs>
    <style>
      .cls-1 {
        fill: #000;
      }

      .cls-1, .cls-2 {
        stroke-width: 0px;
      }

      .cls-2 {
        fill: #cd0a0d;
      }
    </style>
  </defs>
  <g id="_レイヤー_1-2" data-name=" レイヤー 1-2">
    <g>
      <path class="cls-2" d="M9.2,11.3l-2.5,3.9c-1.8-1.2-4.7-3.1-6.7-4.2l2.5-3.8c2.1,1.1,5.1,3,6.7,4.1h0ZM10.9,17.7c4.9-2.7,9-6.8,11.3-10.9l2.7,4.8c-2.8,4-6.8,7.6-11.6,10.3-2.9,1.6-7.1,3.1-9.6,3.5l-2.6-4.6c3.2-.5,6.6-1.4,9.8-3.1ZM13.7,4.7l-2.6,3.8c-1.7-1.1-4.6-3-6.6-4.1L7,.6c2,1.1,5.1,3,6.7,4.1Z"/>
      <path class="cls-2" d="M36.8,16.9c5.2-3,9-7.4,10.9-11.4l2.7,4.9c-2.3,4.1-6.3,8-11.1,10.8-2.9,1.7-6.6,3.2-10.2,3.8l-2.9-4.6c4.2-.6,7.9-1.9,10.7-3.5h-.1ZM37.7,7.6l-3.5,3.6c-1.5-1.7-5.1-4.8-7.2-6.3l3.3-3.5c2,1.3,5.7,4.3,7.4,6.2h0Z"/>
      <g>
        <path class="cls-1" d="M55.3,4.9c0-1.1-.1-2.6-.3-3.7h5.4c-.1,1.1-.3,2.3-.3,3.7v3.9c3.9,1.1,9.4,3.1,11.8,4.3l-2,4.8c-2.9-1.5-6.8-3-9.8-4.1v7.4c0,.8.2,3,.3,4.3h-5.4c.2-1.2.3-3.1.3-4.3V4.9h0ZM70.1,6.3l-2.9,1.3c-.9-2-1.4-2.9-2.5-4.4l2.9-1.2c.9,1.3,2,3.1,2.6,4.4h0l-.1-.1ZM74.1,4.5l-2.9,1.4c-1-2-1.5-2.8-2.7-4.3l2.8-1.3c.9,1.2,2.1,3,2.7,4.2h.1Z"/>
        <path class="cls-1" d="M94.9,5.3c-.8,2.1-2,4.8-3.6,7.4,2.5,2,4.9,4.2,6.8,6.2l-3.6,4c-1.9-2.3-3.9-4.2-6.1-6.2-2.4,2.9-5.6,6-10.3,8.6l-3.9-3.5c4.5-2.2,7.8-4.8,10.6-8.1-2-1.5-4.5-3.4-7.5-5.3l3-3.6c2.2,1.3,5,3.2,7.3,4.9,1.3-2.1,2.1-4.1,2.8-6.2.3-.8.6-2.1.7-2.9l5.2,1.8c-.4.7-1.1,2.1-1.3,2.9h-.1Z"/>
        <path class="cls-1" d="M111.2,7c2.9-1.8,6.4-4.9,8.2-7l3.8,3.6c-2.1,2.1-4.9,4.3-7.6,6.1v11.3c0,1.4,0,3.4.3,4.1h-5.5c.1-.8.2-2.8.2-4.1v-8.4c-2.9,1.5-6.3,2.9-9.7,3.9l-2.1-4.4c5.2-1.3,9.3-3.1,12.5-5h0l-.1-.1Z"/>
        <path class="cls-1" d="M136.1,16.9c5.1-3,9-7.4,10.9-11.4l2.7,4.9c-2.3,4.1-6.4,8-11.1,10.8-2.9,1.7-6.6,3.2-10.2,3.8l-2.9-4.6c4.2-.6,7.9-1.9,10.7-3.5h-.1ZM137,7.6l-3.6,3.6c-1.5-1.7-5.1-4.8-7.2-6.3l3.3-3.5c2,1.3,5.7,4.3,7.4,6.2h.1Z"/>
      </g>
    </g>
  </g>
</svg>