<?xml version="1.0" encoding="UTF-8"?>
<svg xmlns="http://www.w3.org/2000/svg" viewBox="0 0 260.42 59.22" width="180" height="35">
  <defs>
    <style>
      .cls-1 {
        fill: #f4bd37;
      }

      .cls-1, .cls-2, .cls-3 {
        fill-rule: evenodd;
      }

      .cls-2 {
        fill: #3d76de;
      }

      .cls-4 {
        fill: #5b5b5b;
      }

      .cls-5 {
        isolation: isolate;
      }

      .cls-3 {
        fill: #3ea8dd;
        mix-blend-mode: multiply;
        opacity: .75;
      }
    </style>
  </defs>
  <g class="cls-5">
    <g id="_レイヤー_2" data-name="レイヤー_2">
      <g id="_レイヤー_2-2" data-name="レイヤー_2">
        <g>
          <path class="cls-4" d="M74.3,22.27c.25-.05.49-.07.74-.07,1.06,0,1.97.27,2.71.82.42.32.69.75.82,1.3.02.17.04.33.04.48,0,.37-.1.73-.3,1.08l-.33.67c-1.63,3.79-3.55,7.17-5.75,10.17-.15.2-.12.37.07.52,2.75,2.42,5.57,5.25,8.46,8.46.47.54.71,1.16.71,1.86v.22c-.07.79-.41,1.45-1,1.97-.52.45-1.09.67-1.71.67-.12,0-.24-.01-.33-.04-.77-.07-1.4-.41-1.89-1-2.1-2.65-4.63-5.39-7.57-8.24-.17-.17-.35-.17-.52,0-3.59,3.76-7.42,6.8-11.5,9.13-.54.3-1.11.45-1.71.45-.22,0-.43-.03-.63-.07-.84-.12-1.55-.5-2.12-1.11-.37-.4-.56-.83-.56-1.3,0-.15.01-.3.04-.45.15-.67.53-1.15,1.15-1.45,2.45-1.19,4.82-2.66,7.11-4.42,2.29-1.76,4.25-3.54,5.88-5.34,1.19-1.38,2.29-2.89,3.32-4.53,1.03-1.63,1.76-3.12,2.21-4.45.02-.07.01-.15-.04-.22-.05-.07-.12-.11-.22-.11h-12.51c-.5,0-1.09.01-1.78.04-.07.03-.14.04-.19.04-.64,0-1.21-.23-1.71-.71-.54-.49-.82-1.1-.82-1.82s.27-1.32.82-1.82c.49-.45,1.08-.67,1.74-.67h.15c.72.05,1.31.07,1.78.07h13.4c.69,0,1.37-.04,2.04-.11Z"/>
          <path class="cls-4" d="M108.35,23.68h.78c1.34,0,2.46.27,3.38.82.54.35.9.83,1.08,1.45.07.25.11.5.11.74,0,.37-.07.73-.22,1.08-.1.22-.19.43-.26.63-1.19,3.54-2.87,6.92-5.05,10.13-.12.2-.09.36.11.48.32.22.66.45,1,.67.64.42,1.03,1,1.15,1.74.02.15.04.3.04.45,0,.59-.2,1.13-.59,1.6-.47.62-1.09.96-1.86,1.04-.12.03-.25.04-.37.04-.62,0-1.19-.2-1.71-.59-.32-.22-.67-.47-1.04-.74-.2-.12-.38-.1-.56.07-3.14,3.39-6.83,6.07-11.06,8.05-.59.27-1.2.41-1.82.41-.25,0-.5-.03-.74-.07-.87-.15-1.65-.52-2.34-1.11-.37-.35-.56-.75-.56-1.22,0-.1.01-.22.04-.37.12-.62.48-1.05,1.08-1.3,4.25-1.66,7.98-4.08,11.17-7.27.17-.17.15-.33-.07-.48-1.56-.99-3.12-1.95-4.68-2.89-.54-.32-.87-.79-.96-1.41-.03-.12-.04-.23-.04-.33,0-.47.17-.9.52-1.3.47-.52,1.05-.84,1.74-.96.2-.05.4-.07.59-.07.49,0,.96.12,1.41.37,1.48.82,3.04,1.71,4.68,2.67.22.12.4.09.52-.11,1.78-2.65,3.01-5.12,3.67-7.42.02-.1,0-.19-.06-.26-.06-.07-.14-.11-.24-.11h-10.17c-.25,0-.45.1-.59.3-2.35,3.09-4.92,5.75-7.72,7.98-.59.47-1.26.71-2,.71h-.04c-.77-.02-1.46-.27-2.08-.74-.47-.37-.71-.85-.71-1.45,0-.67.26-1.19.78-1.56,4.03-2.89,7.36-6.63,9.98-11.21.22-.35.46-.78.71-1.3.35-.72.88-1.26,1.6-1.63.42-.22.85-.33,1.3-.33.3,0,.58.05.85.15l.59.19c.54.17.92.52,1.11,1.04.07.22.11.43.11.63,0,.32-.09.63-.26.93-.27.45-.64,1.08-1.11,1.89l-.07.07h7.79c.35,0,.71-.01,1.08-.04Z"/>
          <path class="cls-4" d="M117.52,37.6h-.06c-.45,0-.83-.21-1.17-.63-.35-.45-.53-.99-.53-1.63s.18-1.14.53-1.56c.31-.42.7-.63,1.14-.63h.08c.87.05,1.7.07,2.48.07h15.47c.46,0,.95-.01,1.45-.04h.08c.45,0,.83.2,1.14.59.35.42.53.94.53,1.56s-.18,1.19-.53,1.63c-.33.4-.72.59-1.17.59h-.06c-.52-.02-.99-.04-1.42-.04h-15.5c-.78,0-1.61.03-2.48.07Z"/>
          <path class="cls-4" d="M163.93,34.81c.74.3,1.25.82,1.52,1.56.15.37.22.73.22,1.08,0,.4-.07.78-.22,1.15-.3.69-.8,1.18-1.52,1.45-.32.12-.64.19-.96.19-.4,0-.78-.09-1.15-.26-3.17-1.46-6.78-2.89-10.84-4.3-.07-.02-.15-.01-.22.04-.07.05-.11.12-.11.22v10.39c0,.5.04,1.26.11,2.3v.22c0,.72-.25,1.34-.74,1.86-.54.59-1.21.89-2,.89s-1.42-.3-1.97-.89c-.47-.52-.71-1.14-.71-1.86v-.19c.07-.89.11-1.67.11-2.34v-21.82l-.07-1.86c0-.69.23-1.31.71-1.86.52-.59,1.16-.89,1.93-.89s1.45.3,1.97.89c.49.52.74,1.14.74,1.86,0,.07-.01.15-.04.22-.03.59-.04,1.14-.04,1.63v5.2c0,.25.11.41.33.48,4.4,1.31,8.72,2.86,12.95,4.64Z"/>
          <path class="cls-4" d="M187.19,23.01c.25-.79.72-1.38,1.41-1.78.45-.25.88-.37,1.3-.37.32,0,.63.06.93.19.77.27,1.3.78,1.6,1.52.15.37.22.74.22,1.11,0,.4-.07.78-.22,1.15-.1.22-.19.43-.26.63-1.39,3.71-3.02,7.05-4.9,10.02-.15.2-.12.37.07.52,2.38,1.98,4.6,4,6.68,6.05.62.59.93,1.32.93,2.19,0,.79-.27,1.48-.82,2.08-.52.57-1.16.85-1.93.85s-1.45-.28-1.97-.85c-1.83-1.95-3.88-3.93-6.16-5.94-.2-.15-.37-.14-.52.04-3.39,4.03-7.19,7.36-11.39,9.98-.62.4-1.27.59-1.97.59-.15,0-.3-.01-.45-.04-.87-.1-1.63-.45-2.3-1.04-.45-.4-.67-.88-.67-1.45,0-.1.01-.2.04-.3.07-.69.42-1.21,1.04-1.56,4.5-2.52,8.37-5.71,11.62-9.57.15-.17.14-.35-.04-.52-2.85-2.23-5.43-4.08-7.76-5.57-.57-.37-.9-.89-1-1.56-.03-.12-.04-.26-.04-.41,0-.49.17-.95.52-1.37.47-.54,1.06-.88,1.78-1,.17-.02.33-.04.48-.04.54,0,1.05.16,1.52.48,2.7,1.76,5.22,3.5,7.57,5.23.2.15.37.12.52-.07,1.46-2.38,2.78-5.28,3.97-8.72.05-.15.11-.31.19-.48Z"/>
          <path class="cls-4" d="M218.16,30.92c-.2.12-.3.31-.3.56v15.18l.04,2.12c0,.74-.25,1.4-.74,1.97-.52.59-1.18.89-1.97.89s-1.46-.3-2-.89c-.52-.57-.78-1.22-.78-1.97l.04-2.12v-12.1c0-.07-.03-.14-.09-.19-.06-.05-.14-.05-.24,0-3.41,1.71-6.79,3.11-10.13,4.19-.35.12-.69.19-1.04.19-.4,0-.79-.09-1.19-.26-.74-.27-1.32-.75-1.74-1.45-.17-.32-.26-.66-.26-1,0-.25.05-.51.15-.78.27-.62.73-1.01,1.37-1.19,5.42-1.46,10.3-3.54,14.66-6.23,3.09-1.93,5.8-4.11,8.13-6.53.52-.52,1.15-.82,1.89-.89h.22c.64,0,1.21.22,1.71.67.57.52.85,1.16.85,1.93,0,.72-.26,1.32-.78,1.82-2.47,2.28-5.07,4.3-7.79,6.09Z"/>
          <path class="cls-4" d="M235.96,50.77c-.32.1-.64.15-.96.15-.52,0-1.04-.11-1.56-.33-.82-.37-1.47-.94-1.97-1.71-.22-.32-.33-.66-.33-1,0-.27.06-.54.19-.82.3-.64.79-1.04,1.48-1.19,4.3-.92,8.18-2.4,11.62-4.45,2.57-1.53,4.93-3.36,7.07-5.49,2.14-2.13,3.9-4.33,5.29-6.61.35-.57.85-.85,1.52-.85s1.12.27,1.45.82c.45.79.67,1.66.67,2.6,0,.99-.27,1.88-.82,2.67-1.53,2.18-3.37,4.26-5.49,6.25-2.13,1.99-4.44,3.74-6.94,5.25-3.59,2.15-7.32,3.72-11.21,4.71ZM233.14,26.43c-.54-.42-.85-.98-.93-1.67v-.22c0-.59.21-1.11.63-1.56.52-.54,1.15-.85,1.89-.93.1-.02.2-.04.3-.04.62,0,1.19.2,1.71.59,2.03,1.51,3.91,3.03,5.64,4.56.59.52.89,1.19.89,2,0,.74-.26,1.39-.78,1.93-.54.54-1.2.82-1.97.82s-1.42-.26-1.97-.78c-1.76-1.66-3.56-3.23-5.42-4.71Z"/>
        </g>
        <path class="cls-4" d="M160.39,24.94c.15.25.22.51.22.78,0,.2-.03.38-.07.56-.17.47-.48.8-.93,1-.25.1-.5.15-.74.15-.22,0-.43-.04-.63-.11-.47-.17-.83-.48-1.08-.93-.5-1.01-1.01-1.94-1.56-2.78-.17-.27-.26-.54-.26-.82,0-.12.02-.26.07-.41.12-.42.38-.72.78-.89.27-.12.54-.19.82-.19.2,0,.4.03.59.07.49.15.88.43,1.15.85.62.96,1.16,1.87,1.63,2.71ZM165.47,22.79c.17.25.26.52.26.82,0,.15-.04.31-.11.48-.15.47-.43.8-.85,1-.27.12-.53.19-.78.19-.2,0-.4-.02-.59-.07-.47-.15-.83-.45-1.08-.89-.52-.94-1.08-1.84-1.67-2.71-.17-.27-.26-.54-.26-.82,0-.12.01-.26.04-.41.12-.42.38-.73.78-.93.3-.15.59-.22.89-.22.17,0,.35.03.52.07.49.15.89.42,1.19.82.62.94,1.17,1.83,1.67,2.67Z"/>
        <path class="cls-1" d="M33.26,15.83c0-2.53-5.39-7.92-7.92-7.92,2.53,0,7.91-5.39,7.91-7.92,0,2.53,5.39,7.92,7.92,7.92-2.53,0-7.91,5.39-7.91,7.92Z"/>
        <path class="cls-2" d="M25.8,34.72c2.23-2.45,3.58-5.66,3.58-9.18,0-7.69-6.45-13.92-14.4-13.92S.58,17.85.58,25.54c0,3.52,1.35,6.73,3.58,9.18-2.58,2.6-4.17,6.13-4.17,10.01,0,8,6.71,14.48,14.98,14.48s14.98-6.48,14.98-14.48c0-3.89-1.59-7.41-4.17-10.01ZM20.79,48.43l-5.81,3.17-5.81-3.17v-6.34l5.81-3.17,5.81,3.17v6.34ZM20.79,28.78l-5.81,3.17-5.81-3.17v-6.34l5.81-3.17,5.81,3.17v6.34Z"/>
        <path class="cls-3" d="M29.38,25.54c0-2.46-.67-4.78-1.83-6.79l-6.77,3.69h0v6.34l-5.81,3.17-5.81-3.17-6.7,3.65c.48.82,1.05,1.59,1.69,2.29-2.58,2.6-4.17,6.13-4.17,10.01,0,2.75.79,5.33,2.17,7.52l7-3.82h0v-6.34l5.81-3.17,5.81,3.17h0s0,0,0,0l7.47-4.07c-.66-1.21-1.49-2.32-2.46-3.3,2.23-2.45,3.58-5.66,3.58-9.18Z"/>
      </g>
    </g>
  </g>
</svg>