<svg xmlns="http://www.w3.org/2000/svg" viewBox="0 0 300 52.67"><defs><style>.cls-1{fill:#005bab}</style></defs><g id="レイヤー_2" data-name="レイヤー 2"><g id="レイヤー_1-2" data-name="レイヤー 1"><path class="cls-1" d="M48.13 0l-3.26 5.66-3.27 5.65-3.26 5.66-1.21 2.09-3.27 5.65-3.26 5.66-2.83-4.89v-.01l-2.83-4.89v-.01l-2.08-3.6-.66-1.15-1.69-2.92-.92-1.59h6.54l2.08 3.61 1.18 2.05 1.65 2.85 1.64-2.85 1.62-2.81 1.65-2.85 3.26-5.65L42.48 0h5.65z"/><path d="M27.33 36.03l-3.26 5.65-2.83-4.9-.12-.19-.15-.27-.11-.19-.11-.2-2.34-4.04L9.8 16.97l-1.46-2.53-.81-1.39-1-1.74L5.49 9.5 3.27 5.66 0 0h26.13l3.26 5.66H9.8l3.26 5.65 3.27 5.66 5.35 9.26 2.83 4.9 2.82 4.9zM49.32 7h5.33l6.86 19.36L68.47 7h5.32L64 34.22h-5zm39.17 7.06h5.06v20.16h-5.06v-2.13a10.09 10.09 0 01-3 2 8.37 8.37 0 01-3.23.62 9 9 0 01-6.75-3 10.57 10.57 0 01-2.85-7.53 10.86 10.86 0 012.75-7.65 8.8 8.8 0 016.7-3 8.48 8.48 0 013.41.69 9.25 9.25 0 012.94 2.06zm-5.32 4.15a5.12 5.12 0 00-3.89 1.66 6 6 0 00-1.55 4.25 6 6 0 001.57 4.3 5.15 5.15 0 003.89 1.69 5.22 5.22 0 004-1.66 6.07 6.07 0 001.57-4.35 5.88 5.88 0 00-1.57-4.26 5.29 5.29 0 00-4.02-1.63zM98.72 6.28h5.06v27.94h-5.06zM109 14.06h5.12v9.71a13.49 13.49 0 00.39 3.94 3.49 3.49 0 001.25 1.71 3.59 3.59 0 002.13.61 3.69 3.69 0 002.14-.6 3.48 3.48 0 001.31-1.77 13.51 13.51 0 00.32-3.72v-9.88h5.06v8.54q0 5.28-.84 7.23a7.92 7.92 0 01-3 3.64 9.23 9.23 0 01-5 1.27 9 9 0 01-5.36-1.48 7.78 7.78 0 01-2.88-4.14 24.71 24.71 0 01-.6-6.67zm42.51 11.54h-16.25a5.4 5.4 0 001.88 3.4 5.88 5.88 0 003.9 1.27 6.77 6.77 0 004.88-2l4.26 2a10.08 10.08 0 01-3.82 3.34 11.82 11.82 0 01-5.28 1.09 10.47 10.47 0 01-7.73-3 10.24 10.24 0 01-3-7.5 10.5 10.5 0 013-7.66 10 10 0 017.45-3.05 10.37 10.37 0 017.75 3.05 11.05 11.05 0 013 8.05zm-5.06-4a5.06 5.06 0 00-2-2.74 5.79 5.79 0 00-3.43-1.06 6.07 6.07 0 00-3.68 1.2 6.53 6.53 0 00-1.85 2.61zM163.27 7h6.15q5.94 0 8.83 1.47a11.48 11.48 0 014.75 4.76 15.45 15.45 0 011.87 7.77 15.73 15.73 0 01-1 5.79 12 12 0 01-2.89 4.38 10.19 10.19 0 01-4 2.41 28.11 28.11 0 01-7.44.67h-6.24zm5.15 5v17.16h2.41a12.15 12.15 0 005.16-.81 6.2 6.2 0 002.62-2.75 10.08 10.08 0 001-4.75 9 9 0 00-2.43-6.73Q175 12 170.18 12zm29.64 1.54a10.68 10.68 0 015.36 1.46 10.26 10.26 0 013.92 3.87 10.39 10.39 0 011.41 5.28 10.57 10.57 0 01-1.42 5.34 10.2 10.2 0 01-3.86 3.88 10.7 10.7 0 01-5.39 1.4 10 10 0 01-7.4-3.09 10.19 10.19 0 01-3.07-7.49 10.19 10.19 0 013.46-7.87 10.14 10.14 0 016.99-2.78zm.08 4.77a5.19 5.19 0 00-3.92 1.63 5.83 5.83 0 00-1.57 4.2 5.94 5.94 0 001.55 4.26 5.16 5.16 0 003.92 1.6 5.26 5.26 0 004-1.65 5.88 5.88 0 001.57-4.24 5.8 5.8 0 00-1.55-4.21 5.23 5.23 0 00-4-1.59zm13.73-4.25h5v2.32a8.7 8.7 0 012.89-2.13 8.4 8.4 0 013.46-.71 6.42 6.42 0 013.41.93 6.65 6.65 0 012.44 2.71 8.21 8.21 0 013-2.71 8.06 8.06 0 013.83-.93 7.16 7.16 0 013.78 1 5.81 5.81 0 012.32 2.62 14.06 14.06 0 01.71 5.24v11.82h-5.09V24c0-2.28-.29-3.83-.86-4.64a2.9 2.9 0 00-2.55-1.21 3.92 3.92 0 00-2.33.74 4.45 4.45 0 00-1.53 2.05 12.8 12.8 0 00-.5 4.19v9.1h-5.05v-9.77a13.58 13.58 0 00-.4-3.92 3.61 3.61 0 00-1.2-1.81 3.16 3.16 0 00-1.93-.59 3.79 3.79 0 00-2.29.75 4.45 4.45 0 00-1.54 2.1 12.94 12.94 0 00-.52 4.26v9h-5zm50.05 0H267v20.16h-5.06v-2.13a9.84 9.84 0 01-3 2 8.37 8.37 0 01-3.23.62 9 9 0 01-6.75-3 10.57 10.57 0 01-2.85-7.53 10.82 10.82 0 012.76-7.65 8.79 8.79 0 016.7-3 8.44 8.44 0 013.4.69 9.25 9.25 0 012.94 2.06zm-5.31 4.15a5.12 5.12 0 00-3.9 1.66 6 6 0 00-1.55 4.25 6.05 6.05 0 001.58 4.3 5.13 5.13 0 003.88 1.69 5.25 5.25 0 004-1.66 6.11 6.11 0 001.57-4.35 5.92 5.92 0 00-1.57-4.26 5.31 5.31 0 00-4.01-1.63zm17.92-12.45a3.06 3.06 0 012.28 1 3.18 3.18 0 011 2.33 3.18 3.18 0 01-.95 2.31 3.18 3.18 0 01-4.55 0 3.28 3.28 0 01-.99-2.4 3.23 3.23 0 013.21-3.23zm-2.53 8.3h5.06v20.16H272zm10.12 0h5.06v2.07a12 12 0 013.12-2 7.48 7.48 0 012.86-.57 6.9 6.9 0 015.08 2.1A7.19 7.19 0 01300 20.9v13.32h-5v-8.83a21.91 21.91 0 00-.33-4.79 3.25 3.25 0 00-1.12-1.8 3.13 3.13 0 00-2-.62 3.73 3.73 0 00-2.63 1A5.5 5.5 0 00287.4 22a22.83 22.83 0 00-.22 4.09v8.09h-5.06z" fill="#002c52"/><path class="cls-1" d="M245.5 48.86c0 .59-.28 1.39-1.07 1.39a1 1 0 01-1-.85 1.82 1.82 0 01-.07-.58c0-1 .57-1.32 1-1.32a1.18 1.18 0 011.14 1.36zm-3.21-4v6.31h1.06v-.46a1.66 1.66 0 001.23.59 2.18 2.18 0 002-2.38 2.15 2.15 0 00-2-2.35 1.9 1.9 0 00-1.3.51v-2.26zm8.61 1.8l-1.14 3.9-.25.84c-.3.94-.63 1.27-1.46 1.27a3.33 3.33 0 01-.65-.06v-.93h.29a.92.92 0 00.48-.11.6.6 0 00.25-.37l-1.62-4.56h1.2l1 3.36.85-3.34zm25.43 4.11h.67a.12.12 0 00.09-.05l2.66-4.35 1.44 5a.08.08 0 00.08 0h2.78L281.13 42a.09.09 0 00-.08-.05H280a.12.12 0 00-.09.05l-3.58 5.55-3.59-5.55a.09.09 0 00-.09-.05h-1a.08.08 0 00-.08.05l-2.94 9.32h2.79a.08.08 0 00.07 0l1.45-5 2.66 4.35a.09.09 0 00.09.05zm-7.62-4.64a.05.05 0 000-.05h-8a.76.76 0 000 1.52h4.72c-.56 1.49-2.46 2.58-4.72 2.58-2.7 0-4.89-1.56-4.89-3.49s2.19-3.49 4.89-3.49a5.86 5.86 0 013.7 1.2h3.28a.06.06 0 00.06-.06c-1.38-1.48-4-2.47-7-2.47-4.45 0-8.06 2.17-8.06 4.84s3.61 4.84 8.06 4.84 8.06-2.17 8.06-4.84a2.6 2.6 0 00-.1-.58zm23.23-4.28c-4.45 0-8.05 2.17-8.05 4.84s3.6 4.84 8.05 4.84 8.06-2.17 8.06-4.84-3.61-4.84-8.06-4.84zm0 8.33c-2.7 0-4.89-1.56-4.89-3.49s2.19-3.49 4.89-3.49 4.89 1.56 4.89 3.49-2.19 3.49-4.89 3.49z"/></g></g></svg>